# xmcd
#
# Track frame offsets:
#	150
#	18425
#	45344
#	72435
#	102606
#	122769
#	158449
#	180062
#	193282
#	220953
#	253365
#	287298
#	306450
#	321253
#
# Disc length: 4594 seconds
#
# Revision: 1
# Processed by: cddbd v1.5.2PL0 Copyright (c) Steve Scherf et al.
# Submitted via: audiograbber 1.83.01
#
DISCID=c911f00e
DTITLE=B.B. King - Live At The BBC
DYEAR=2008
DGENRE=Blues
TTITLE0=Caldonia
TTITLE1=I Love To Live The Life
TTITLE2=Night Life
TTITLE3=When It All Comes Down (I'll Still Be Around)
TTITLE4=The Thrill Is Gone
TTITLE5=I Gotta Move Out Of This Neighbourhood
TTITLE6=When Love Comes To Town
TTITLE7=Let The Good Times Roll
TTITLE8=Stormy Monday Blues
TTITLE9=Ain't Nobody Home
TTITLE10=Five Long Years
TTITLE11=How Blue Can You Get
TTITLE12=Paying The Cost To Be The Boss
TTITLE13=The Thrill Is Gone
EXTD=
EXTT0=
EXTT1=
EXTT2=
EXTT3=
EXTT4=
EXTT5=
EXTT6=
EXTT7=
EXTT8=
EXTT9=
EXTT10=
EXTT11=
EXTT12=
EXTT13=
PLAYORDER=
